<svg width="473" height="133" viewBox="0 0 473 133" fill="none" xmlns="http://www.w3.org/2000/svg">
<g filter="url(#filter0_d_205_326)">
<mask id="path-1-outside-1_205_326" maskUnits="userSpaceOnUse" x="20.3364" y="5.96094" width="433" height="92" fill="black">
<rect fill="white" x="20.3364" y="5.96094" width="433" height="92"/>
<path d="M134.792 40.0009V8.50094H157.022L156.977 14.4409H140.327L141.992 12.7759L142.037 40.0009H134.792Z"/>
<path d="M173.334 40.5409C170.844 40.5409 168.534 40.1359 166.404 39.3259C164.304 38.5159 162.474 37.3759 160.914 35.9059C159.384 34.4359 158.184 32.7109 157.314 30.7309C156.474 28.7509 156.054 26.5909 156.054 24.2509C156.054 21.9109 156.474 19.7509 157.314 17.7709C158.184 15.7909 159.399 14.0659 160.959 12.5959C162.519 11.1259 164.349 9.98594 166.449 9.17594C168.549 8.36594 170.829 7.96094 173.289 7.96094C175.779 7.96094 178.059 8.36594 180.129 9.17594C182.229 9.98594 184.044 11.1259 185.574 12.5959C187.134 14.0659 188.349 15.7909 189.219 17.7709C190.089 19.7209 190.524 21.8809 190.524 24.2509C190.524 26.5909 190.089 28.7659 189.219 30.7759C188.349 32.7559 187.134 34.4809 185.574 35.9509C184.044 37.3909 182.229 38.5159 180.129 39.3259C178.059 40.1359 175.794 40.5409 173.334 40.5409ZM173.289 34.3309C174.699 34.3309 175.989 34.0909 177.159 33.6109C178.359 33.1309 179.409 32.4409 180.309 31.5409C181.209 30.6409 181.899 29.5759 182.379 28.3459C182.889 27.1159 183.144 25.7509 183.144 24.2509C183.144 22.7509 182.889 21.3859 182.379 20.1559C181.899 18.9259 181.209 17.8609 180.309 16.9609C179.439 16.0609 178.404 15.3709 177.204 14.8909C176.004 14.4109 174.699 14.1709 173.289 14.1709C171.879 14.1709 170.574 14.4109 169.374 14.8909C168.204 15.3709 167.169 16.0609 166.269 16.9609C165.369 17.8609 164.664 18.9259 164.154 20.1559C163.674 21.3859 163.434 22.7509 163.434 24.2509C163.434 25.7209 163.674 27.0859 164.154 28.3459C164.664 29.5759 165.354 30.6409 166.224 31.5409C167.124 32.4409 168.174 33.1309 169.374 33.6109C170.574 34.0909 171.879 34.3309 173.289 34.3309Z"/>
<path d="M195.576 40.4959C195.036 40.4959 194.466 40.4509 193.866 40.3609C193.296 40.2709 192.666 40.1509 191.976 40.0009L192.426 33.8359C192.846 33.9559 193.281 34.0159 193.731 34.0159C194.961 34.0159 195.921 33.5209 196.611 32.5309C197.301 31.5109 197.796 30.0559 198.096 28.1659C198.396 26.2759 198.591 23.9809 198.681 21.2809L199.131 8.50094H223.341V40.0009H216.141V12.7759L217.806 14.4409H203.901L205.386 12.6859L205.116 21.0109C205.026 24.1009 204.816 26.8459 204.486 29.2459C204.156 31.6459 203.646 33.6859 202.956 35.3659C202.266 37.0459 201.321 38.3209 200.121 39.1909C198.921 40.0609 197.406 40.4959 195.576 40.4959Z"/>
<path d="M232.288 34.0609C234.028 34.5709 235.483 34.7209 236.653 34.5109C237.853 34.2709 238.918 33.4309 239.848 31.9909L241.378 29.6959L242.053 28.9309L252.493 8.50094H259.648L246.238 33.4309C245.038 35.6809 243.613 37.4059 241.963 38.6059C240.343 39.8059 238.558 40.4809 236.608 40.6309C234.658 40.8109 232.633 40.4659 230.533 39.5959L232.288 34.0609ZM241.918 35.0059L227.698 8.50094H235.483L245.923 29.6509L241.918 35.0059Z"/>
<path d="M263.113 40.0009V8.50094H288.538V14.3059H270.358V20.7859H279.088C282.898 20.7859 285.793 21.5809 287.773 23.1709C289.783 24.7609 290.788 27.0709 290.788 30.1009C290.788 33.2209 289.678 35.6509 287.458 37.3909C285.238 39.1309 282.103 40.0009 278.053 40.0009H263.113ZM270.358 34.6009H277.648C279.508 34.6009 280.933 34.2409 281.923 33.5209C282.913 32.7709 283.408 31.6909 283.408 30.2809C283.408 27.5209 281.488 26.1409 277.648 26.1409H270.358V34.6009Z"/>
<path d="M296.335 40.0009V8.50094H303.58V29.0209L318.61 8.50094H325.45V40.0009H318.25V19.5259L303.22 40.0009H296.335Z"/>
<path d="M22.3364 95.0009V63.5009H37.0064C40.6664 63.5009 43.5164 64.2059 45.5564 65.6159C47.5964 67.0259 48.6164 69.0359 48.6164 71.6459C48.6164 74.2259 47.6564 76.2359 45.7364 77.6759C43.8164 79.0859 41.2664 79.7909 38.0864 79.7909L38.9414 77.9009C42.4814 77.9009 45.2264 78.6059 47.1764 80.0159C49.1264 81.4259 50.1014 83.4659 50.1014 86.1359C50.1014 88.8959 49.0514 91.0709 46.9514 92.6609C44.8814 94.2209 41.8514 95.0009 37.8614 95.0009H22.3364ZM29.5814 89.6009H37.5914C39.2714 89.6009 40.5464 89.2709 41.4164 88.6109C42.2864 87.9509 42.7214 86.9309 42.7214 85.5509C42.7214 84.2309 42.2864 83.2559 41.4164 82.6259C40.5464 81.9659 39.2714 81.6359 37.5914 81.6359H29.5814V89.6009ZM29.5814 76.5509H36.3764C37.9664 76.5509 39.1664 76.2359 39.9764 75.6059C40.7864 74.9459 41.1914 73.9859 41.1914 72.7259C41.1914 71.4659 40.7864 70.5209 39.9764 69.8909C39.1664 69.2309 37.9664 68.9009 36.3764 68.9009H29.5814V76.5509Z"/>
<path d="M90.2108 63.5009H97.5008V95.0009H90.2108V63.5009ZM75.9008 95.0009H68.6108V63.5009H75.9008V95.0009ZM90.7508 82.0859H75.3608V75.9209H90.7508V82.0859Z"/>
<path d="M101.838 95.0009L115.878 63.5009H123.078L137.163 95.0009H129.513L117.993 67.1909H120.873L109.308 95.0009H101.838ZM108.858 88.2509L110.793 82.7159H126.993L128.973 88.2509H108.858Z"/>
<path d="M160.15 89.0609L158.53 90.7259V63.5009H165.775V90.7259L164.065 89.0609H177.385L175.675 90.7259V63.5009H182.92V95.0009H141.34V63.5009H148.585V90.7259L146.92 89.0609H160.15Z"/>
<path d="M197.44 76.1909H212.605V81.8609H197.44V76.1909ZM197.98 89.1509H215.125V95.0009H190.735V63.5009H214.54V69.3509H197.98V89.1509Z"/>
<path d="M221.013 95.0009V63.5009H228.258V84.0209L243.288 63.5009H250.128V95.0009H242.928V74.5259L227.898 95.0009H221.013ZM235.548 61.4759C232.548 61.4759 230.343 60.8759 228.933 59.6759C227.553 58.4759 226.848 56.7809 226.818 54.5909H231.813C231.843 55.6709 232.158 56.4959 232.758 57.0659C233.388 57.6059 234.318 57.8759 235.548 57.8759C236.748 57.8759 237.663 57.6059 238.293 57.0659C238.923 56.4959 239.253 55.6709 239.283 54.5909H244.278C244.248 56.7809 243.528 58.4759 242.118 59.6759C240.708 60.8759 238.518 61.4759 235.548 61.4759Z"/>
<path d="M306.355 95.0009L297.895 79.8359L304.06 76.2809L314.77 95.0009H306.355ZM292.54 82.3109V76.2359H302.35V82.3109H292.54ZM304.465 80.0609L297.715 79.2509L306.49 63.5009H314.185L304.465 80.0609ZM275.8 95.0009H267.385L278.095 76.2809L284.26 79.8359L275.8 95.0009ZM294.7 95.0009H287.545V63.5009H294.7V95.0009ZM289.66 82.3109H279.805V76.2359H289.66V82.3109ZM277.735 80.0609L267.97 63.5009H275.665L284.395 79.2509L277.735 80.0609Z"/>
<path d="M318.264 95.0009V63.5009H325.509V84.0209L340.539 63.5009H347.379V95.0009H340.179V74.5259L325.149 95.0009H318.264Z"/>
<path d="M352.387 92.2109L354.637 86.9909C355.987 87.8009 357.427 88.4309 358.957 88.8809C360.517 89.3009 362.032 89.5409 363.502 89.6009C365.002 89.6309 366.352 89.4809 367.552 89.1509C368.782 88.8209 369.757 88.3259 370.477 87.6659C371.227 87.0059 371.602 86.1659 371.602 85.1459C371.602 83.9459 371.107 83.0609 370.117 82.4909C369.127 81.8909 367.807 81.5909 366.157 81.5909H358.462V76.1009H365.617C367.087 76.1009 368.227 75.8009 369.037 75.2009C369.877 74.6009 370.297 73.7759 370.297 72.7259C370.297 71.8259 369.997 71.1059 369.397 70.5659C368.797 69.9959 367.972 69.5759 366.922 69.3059C365.902 69.0359 364.747 68.9159 363.457 68.9459C362.167 68.9759 360.832 69.1859 359.452 69.5759C358.072 69.9659 356.752 70.5059 355.492 71.1959L353.287 65.5709C355.327 64.5209 357.472 63.8009 359.722 63.4109C362.002 62.9909 364.192 62.8859 366.292 63.0959C368.422 63.2759 370.342 63.7559 372.052 64.5359C373.762 65.2859 375.127 66.2759 376.147 67.5059C377.167 68.7359 377.677 70.1909 377.677 71.8709C377.677 73.3709 377.287 74.7059 376.507 75.8759C375.727 77.0459 374.632 77.9459 373.222 78.5759C371.842 79.2059 370.252 79.5209 368.452 79.5209L368.632 77.9009C370.732 77.9009 372.547 78.2609 374.077 78.9809C375.637 79.6709 376.837 80.6459 377.677 81.9059C378.547 83.1359 378.982 84.5609 378.982 86.1809C378.982 87.6809 378.577 89.0309 377.767 90.2309C376.987 91.4009 375.907 92.3909 374.527 93.2009C373.147 94.0109 371.572 94.6109 369.802 95.0009C368.032 95.3909 366.142 95.5559 364.132 95.4959C362.152 95.4359 360.157 95.1509 358.147 94.6409C356.137 94.1009 354.217 93.2909 352.387 92.2109Z"/>
<path d="M406.353 63.5009H413.643V95.0009H406.353V63.5009ZM392.043 95.0009H384.753V63.5009H392.043V95.0009ZM406.893 82.0859H391.503V75.9209H406.893V82.0859Z"/>
<path d="M421.536 95.0009V63.5009H428.781V84.0209L443.811 63.5009H450.651V95.0009H443.451V74.5259L428.421 95.0009H421.536Z"/>
</mask>
<path d="M134.792 40.0009V8.50094H157.022L156.977 14.4409H140.327L141.992 12.7759L142.037 40.0009H134.792Z" fill="white"/>
<path d="M173.334 40.5409C170.844 40.5409 168.534 40.1359 166.404 39.3259C164.304 38.5159 162.474 37.3759 160.914 35.9059C159.384 34.4359 158.184 32.7109 157.314 30.7309C156.474 28.7509 156.054 26.5909 156.054 24.2509C156.054 21.9109 156.474 19.7509 157.314 17.7709C158.184 15.7909 159.399 14.0659 160.959 12.5959C162.519 11.1259 164.349 9.98594 166.449 9.17594C168.549 8.36594 170.829 7.96094 173.289 7.96094C175.779 7.96094 178.059 8.36594 180.129 9.17594C182.229 9.98594 184.044 11.1259 185.574 12.5959C187.134 14.0659 188.349 15.7909 189.219 17.7709C190.089 19.7209 190.524 21.8809 190.524 24.2509C190.524 26.5909 190.089 28.7659 189.219 30.7759C188.349 32.7559 187.134 34.4809 185.574 35.9509C184.044 37.3909 182.229 38.5159 180.129 39.3259C178.059 40.1359 175.794 40.5409 173.334 40.5409ZM173.289 34.3309C174.699 34.3309 175.989 34.0909 177.159 33.6109C178.359 33.1309 179.409 32.4409 180.309 31.5409C181.209 30.6409 181.899 29.5759 182.379 28.3459C182.889 27.1159 183.144 25.7509 183.144 24.2509C183.144 22.7509 182.889 21.3859 182.379 20.1559C181.899 18.9259 181.209 17.8609 180.309 16.9609C179.439 16.0609 178.404 15.3709 177.204 14.8909C176.004 14.4109 174.699 14.1709 173.289 14.1709C171.879 14.1709 170.574 14.4109 169.374 14.8909C168.204 15.3709 167.169 16.0609 166.269 16.9609C165.369 17.8609 164.664 18.9259 164.154 20.1559C163.674 21.3859 163.434 22.7509 163.434 24.2509C163.434 25.7209 163.674 27.0859 164.154 28.3459C164.664 29.5759 165.354 30.6409 166.224 31.5409C167.124 32.4409 168.174 33.1309 169.374 33.6109C170.574 34.0909 171.879 34.3309 173.289 34.3309Z" fill="white"/>
<path d="M195.576 40.4959C195.036 40.4959 194.466 40.4509 193.866 40.3609C193.296 40.2709 192.666 40.1509 191.976 40.0009L192.426 33.8359C192.846 33.9559 193.281 34.0159 193.731 34.0159C194.961 34.0159 195.921 33.5209 196.611 32.5309C197.301 31.5109 197.796 30.0559 198.096 28.1659C198.396 26.2759 198.591 23.9809 198.681 21.2809L199.131 8.50094H223.341V40.0009H216.141V12.7759L217.806 14.4409H203.901L205.386 12.6859L205.116 21.0109C205.026 24.1009 204.816 26.8459 204.486 29.2459C204.156 31.6459 203.646 33.6859 202.956 35.3659C202.266 37.0459 201.321 38.3209 200.121 39.1909C198.921 40.0609 197.406 40.4959 195.576 40.4959Z" fill="white"/>
<path d="M232.288 34.0609C234.028 34.5709 235.483 34.7209 236.653 34.5109C237.853 34.2709 238.918 33.4309 239.848 31.9909L241.378 29.6959L242.053 28.9309L252.493 8.50094H259.648L246.238 33.4309C245.038 35.6809 243.613 37.4059 241.963 38.6059C240.343 39.8059 238.558 40.4809 236.608 40.6309C234.658 40.8109 232.633 40.4659 230.533 39.5959L232.288 34.0609ZM241.918 35.0059L227.698 8.50094H235.483L245.923 29.6509L241.918 35.0059Z" fill="white"/>
<path d="M263.113 40.0009V8.50094H288.538V14.3059H270.358V20.7859H279.088C282.898 20.7859 285.793 21.5809 287.773 23.1709C289.783 24.7609 290.788 27.0709 290.788 30.1009C290.788 33.2209 289.678 35.6509 287.458 37.3909C285.238 39.1309 282.103 40.0009 278.053 40.0009H263.113ZM270.358 34.6009H277.648C279.508 34.6009 280.933 34.2409 281.923 33.5209C282.913 32.7709 283.408 31.6909 283.408 30.2809C283.408 27.5209 281.488 26.1409 277.648 26.1409H270.358V34.6009Z" fill="white"/>
<path d="M296.335 40.0009V8.50094H303.58V29.0209L318.61 8.50094H325.45V40.0009H318.25V19.5259L303.22 40.0009H296.335Z" fill="white"/>
<path d="M22.3364 95.0009V63.5009H37.0064C40.6664 63.5009 43.5164 64.2059 45.5564 65.6159C47.5964 67.0259 48.6164 69.0359 48.6164 71.6459C48.6164 74.2259 47.6564 76.2359 45.7364 77.6759C43.8164 79.0859 41.2664 79.7909 38.0864 79.7909L38.9414 77.9009C42.4814 77.9009 45.2264 78.6059 47.1764 80.0159C49.1264 81.4259 50.1014 83.4659 50.1014 86.1359C50.1014 88.8959 49.0514 91.0709 46.9514 92.6609C44.8814 94.2209 41.8514 95.0009 37.8614 95.0009H22.3364ZM29.5814 89.6009H37.5914C39.2714 89.6009 40.5464 89.2709 41.4164 88.6109C42.2864 87.9509 42.7214 86.9309 42.7214 85.5509C42.7214 84.2309 42.2864 83.2559 41.4164 82.6259C40.5464 81.9659 39.2714 81.6359 37.5914 81.6359H29.5814V89.6009ZM29.5814 76.5509H36.3764C37.9664 76.5509 39.1664 76.2359 39.9764 75.6059C40.7864 74.9459 41.1914 73.9859 41.1914 72.7259C41.1914 71.4659 40.7864 70.5209 39.9764 69.8909C39.1664 69.2309 37.9664 68.9009 36.3764 68.9009H29.5814V76.5509Z" fill="white"/>
<path d="M90.2108 63.5009H97.5008V95.0009H90.2108V63.5009ZM75.9008 95.0009H68.6108V63.5009H75.9008V95.0009ZM90.7508 82.0859H75.3608V75.9209H90.7508V82.0859Z" fill="white"/>
<path d="M101.838 95.0009L115.878 63.5009H123.078L137.163 95.0009H129.513L117.993 67.1909H120.873L109.308 95.0009H101.838ZM108.858 88.2509L110.793 82.7159H126.993L128.973 88.2509H108.858Z" fill="white"/>
<path d="M160.15 89.0609L158.53 90.7259V63.5009H165.775V90.7259L164.065 89.0609H177.385L175.675 90.7259V63.5009H182.92V95.0009H141.34V63.5009H148.585V90.7259L146.92 89.0609H160.15Z" fill="white"/>
<path d="M197.44 76.1909H212.605V81.8609H197.44V76.1909ZM197.98 89.1509H215.125V95.0009H190.735V63.5009H214.54V69.3509H197.98V89.1509Z" fill="white"/>
<path d="M221.013 95.0009V63.5009H228.258V84.0209L243.288 63.5009H250.128V95.0009H242.928V74.5259L227.898 95.0009H221.013ZM235.548 61.4759C232.548 61.4759 230.343 60.8759 228.933 59.6759C227.553 58.4759 226.848 56.7809 226.818 54.5909H231.813C231.843 55.6709 232.158 56.4959 232.758 57.0659C233.388 57.6059 234.318 57.8759 235.548 57.8759C236.748 57.8759 237.663 57.6059 238.293 57.0659C238.923 56.4959 239.253 55.6709 239.283 54.5909H244.278C244.248 56.7809 243.528 58.4759 242.118 59.6759C240.708 60.8759 238.518 61.4759 235.548 61.4759Z" fill="white"/>
<path d="M306.355 95.0009L297.895 79.8359L304.06 76.2809L314.77 95.0009H306.355ZM292.54 82.3109V76.2359H302.35V82.3109H292.54ZM304.465 80.0609L297.715 79.2509L306.49 63.5009H314.185L304.465 80.0609ZM275.8 95.0009H267.385L278.095 76.2809L284.26 79.8359L275.8 95.0009ZM294.7 95.0009H287.545V63.5009H294.7V95.0009ZM289.66 82.3109H279.805V76.2359H289.66V82.3109ZM277.735 80.0609L267.97 63.5009H275.665L284.395 79.2509L277.735 80.0609Z" fill="white"/>
<path d="M318.264 95.0009V63.5009H325.509V84.0209L340.539 63.5009H347.379V95.0009H340.179V74.5259L325.149 95.0009H318.264Z" fill="white"/>
<path d="M352.387 92.2109L354.637 86.9909C355.987 87.8009 357.427 88.4309 358.957 88.8809C360.517 89.3009 362.032 89.5409 363.502 89.6009C365.002 89.6309 366.352 89.4809 367.552 89.1509C368.782 88.8209 369.757 88.3259 370.477 87.6659C371.227 87.0059 371.602 86.1659 371.602 85.1459C371.602 83.9459 371.107 83.0609 370.117 82.4909C369.127 81.8909 367.807 81.5909 366.157 81.5909H358.462V76.1009H365.617C367.087 76.1009 368.227 75.8009 369.037 75.2009C369.877 74.6009 370.297 73.7759 370.297 72.7259C370.297 71.8259 369.997 71.1059 369.397 70.5659C368.797 69.9959 367.972 69.5759 366.922 69.3059C365.902 69.0359 364.747 68.9159 363.457 68.9459C362.167 68.9759 360.832 69.1859 359.452 69.5759C358.072 69.9659 356.752 70.5059 355.492 71.1959L353.287 65.5709C355.327 64.5209 357.472 63.8009 359.722 63.4109C362.002 62.9909 364.192 62.8859 366.292 63.0959C368.422 63.2759 370.342 63.7559 372.052 64.5359C373.762 65.2859 375.127 66.2759 376.147 67.5059C377.167 68.7359 377.677 70.1909 377.677 71.8709C377.677 73.3709 377.287 74.7059 376.507 75.8759C375.727 77.0459 374.632 77.9459 373.222 78.5759C371.842 79.2059 370.252 79.5209 368.452 79.5209L368.632 77.9009C370.732 77.9009 372.547 78.2609 374.077 78.9809C375.637 79.6709 376.837 80.6459 377.677 81.9059C378.547 83.1359 378.982 84.5609 378.982 86.1809C378.982 87.6809 378.577 89.0309 377.767 90.2309C376.987 91.4009 375.907 92.3909 374.527 93.2009C373.147 94.0109 371.572 94.6109 369.802 95.0009C368.032 95.3909 366.142 95.5559 364.132 95.4959C362.152 95.4359 360.157 95.1509 358.147 94.6409C356.137 94.1009 354.217 93.2909 352.387 92.2109Z" fill="white"/>
<path d="M406.353 63.5009H413.643V95.0009H406.353V63.5009ZM392.043 95.0009H384.753V63.5009H392.043V95.0009ZM406.893 82.0859H391.503V75.9209H406.893V82.0859Z" fill="white"/>
<path d="M421.536 95.0009V63.5009H428.781V84.0209L443.811 63.5009H450.651V95.0009H443.451V74.5259L428.421 95.0009H421.536Z" fill="white"/>
<path d="M134.792 40.0009V8.50094H157.022L156.977 14.4409H140.327L141.992 12.7759L142.037 40.0009H134.792Z" stroke="#2A335C" stroke-width="4" mask="url(#path-1-outside-1_205_326)"/>
<path d="M173.334 40.5409C170.844 40.5409 168.534 40.1359 166.404 39.3259C164.304 38.5159 162.474 37.3759 160.914 35.9059C159.384 34.4359 158.184 32.7109 157.314 30.7309C156.474 28.7509 156.054 26.5909 156.054 24.2509C156.054 21.9109 156.474 19.7509 157.314 17.7709C158.184 15.7909 159.399 14.0659 160.959 12.5959C162.519 11.1259 164.349 9.98594 166.449 9.17594C168.549 8.36594 170.829 7.96094 173.289 7.96094C175.779 7.96094 178.059 8.36594 180.129 9.17594C182.229 9.98594 184.044 11.1259 185.574 12.5959C187.134 14.0659 188.349 15.7909 189.219 17.7709C190.089 19.7209 190.524 21.8809 190.524 24.2509C190.524 26.5909 190.089 28.7659 189.219 30.7759C188.349 32.7559 187.134 34.4809 185.574 35.9509C184.044 37.3909 182.229 38.5159 180.129 39.3259C178.059 40.1359 175.794 40.5409 173.334 40.5409ZM173.289 34.3309C174.699 34.3309 175.989 34.0909 177.159 33.6109C178.359 33.1309 179.409 32.4409 180.309 31.5409C181.209 30.6409 181.899 29.5759 182.379 28.3459C182.889 27.1159 183.144 25.7509 183.144 24.2509C183.144 22.7509 182.889 21.3859 182.379 20.1559C181.899 18.9259 181.209 17.8609 180.309 16.9609C179.439 16.0609 178.404 15.3709 177.204 14.8909C176.004 14.4109 174.699 14.1709 173.289 14.1709C171.879 14.1709 170.574 14.4109 169.374 14.8909C168.204 15.3709 167.169 16.0609 166.269 16.9609C165.369 17.8609 164.664 18.9259 164.154 20.1559C163.674 21.3859 163.434 22.7509 163.434 24.2509C163.434 25.7209 163.674 27.0859 164.154 28.3459C164.664 29.5759 165.354 30.6409 166.224 31.5409C167.124 32.4409 168.174 33.1309 169.374 33.6109C170.574 34.0909 171.879 34.3309 173.289 34.3309Z" stroke="#2A335C" stroke-width="4" mask="url(#path-1-outside-1_205_326)"/>
<path d="M195.576 40.4959C195.036 40.4959 194.466 40.4509 193.866 40.3609C193.296 40.2709 192.666 40.1509 191.976 40.0009L192.426 33.8359C192.846 33.9559 193.281 34.0159 193.731 34.0159C194.961 34.0159 195.921 33.5209 196.611 32.5309C197.301 31.5109 197.796 30.0559 198.096 28.1659C198.396 26.2759 198.591 23.9809 198.681 21.2809L199.131 8.50094H223.341V40.0009H216.141V12.7759L217.806 14.4409H203.901L205.386 12.6859L205.116 21.0109C205.026 24.1009 204.816 26.8459 204.486 29.2459C204.156 31.6459 203.646 33.6859 202.956 35.3659C202.266 37.0459 201.321 38.3209 200.121 39.1909C198.921 40.0609 197.406 40.4959 195.576 40.4959Z" stroke="#2A335C" stroke-width="4" mask="url(#path-1-outside-1_205_326)"/>
<path d="M232.288 34.0609C234.028 34.5709 235.483 34.7209 236.653 34.5109C237.853 34.2709 238.918 33.4309 239.848 31.9909L241.378 29.6959L242.053 28.9309L252.493 8.50094H259.648L246.238 33.4309C245.038 35.6809 243.613 37.4059 241.963 38.6059C240.343 39.8059 238.558 40.4809 236.608 40.6309C234.658 40.8109 232.633 40.4659 230.533 39.5959L232.288 34.0609ZM241.918 35.0059L227.698 8.50094H235.483L245.923 29.6509L241.918 35.0059Z" stroke="#2A335C" stroke-width="4" mask="url(#path-1-outside-1_205_326)"/>
<path d="M263.113 40.0009V8.50094H288.538V14.3059H270.358V20.7859H279.088C282.898 20.7859 285.793 21.5809 287.773 23.1709C289.783 24.7609 290.788 27.0709 290.788 30.1009C290.788 33.2209 289.678 35.6509 287.458 37.3909C285.238 39.1309 282.103 40.0009 278.053 40.0009H263.113ZM270.358 34.6009H277.648C279.508 34.6009 280.933 34.2409 281.923 33.5209C282.913 32.7709 283.408 31.6909 283.408 30.2809C283.408 27.5209 281.488 26.1409 277.648 26.1409H270.358V34.6009Z" stroke="#2A335C" stroke-width="4" mask="url(#path-1-outside-1_205_326)"/>
<path d="M296.335 40.0009V8.50094H303.58V29.0209L318.61 8.50094H325.45V40.0009H318.25V19.5259L303.22 40.0009H296.335Z" stroke="#2A335C" stroke-width="4" mask="url(#path-1-outside-1_205_326)"/>
<path d="M22.3364 95.0009V63.5009H37.0064C40.6664 63.5009 43.5164 64.2059 45.5564 65.6159C47.5964 67.0259 48.6164 69.0359 48.6164 71.6459C48.6164 74.2259 47.6564 76.2359 45.7364 77.6759C43.8164 79.0859 41.2664 79.7909 38.0864 79.7909L38.9414 77.9009C42.4814 77.9009 45.2264 78.6059 47.1764 80.0159C49.1264 81.4259 50.1014 83.4659 50.1014 86.1359C50.1014 88.8959 49.0514 91.0709 46.9514 92.6609C44.8814 94.2209 41.8514 95.0009 37.8614 95.0009H22.3364ZM29.5814 89.6009H37.5914C39.2714 89.6009 40.5464 89.2709 41.4164 88.6109C42.2864 87.9509 42.7214 86.9309 42.7214 85.5509C42.7214 84.2309 42.2864 83.2559 41.4164 82.6259C40.5464 81.9659 39.2714 81.6359 37.5914 81.6359H29.5814V89.6009ZM29.5814 76.5509H36.3764C37.9664 76.5509 39.1664 76.2359 39.9764 75.6059C40.7864 74.9459 41.1914 73.9859 41.1914 72.7259C41.1914 71.4659 40.7864 70.5209 39.9764 69.8909C39.1664 69.2309 37.9664 68.9009 36.3764 68.9009H29.5814V76.5509Z" stroke="#2A335C" stroke-width="4" mask="url(#path-1-outside-1_205_326)"/>
<path d="M90.2108 63.5009H97.5008V95.0009H90.2108V63.5009ZM75.9008 95.0009H68.6108V63.5009H75.9008V95.0009ZM90.7508 82.0859H75.3608V75.9209H90.7508V82.0859Z" stroke="#2A335C" stroke-width="4" mask="url(#path-1-outside-1_205_326)"/>
<path d="M101.838 95.0009L115.878 63.5009H123.078L137.163 95.0009H129.513L117.993 67.1909H120.873L109.308 95.0009H101.838ZM108.858 88.2509L110.793 82.7159H126.993L128.973 88.2509H108.858Z" stroke="#2A335C" stroke-width="4" mask="url(#path-1-outside-1_205_326)"/>
<path d="M160.15 89.0609L158.53 90.7259V63.5009H165.775V90.7259L164.065 89.0609H177.385L175.675 90.7259V63.5009H182.92V95.0009H141.34V63.5009H148.585V90.7259L146.92 89.0609H160.15Z" stroke="#2A335C" stroke-width="4" mask="url(#path-1-outside-1_205_326)"/>
<path d="M197.44 76.1909H212.605V81.8609H197.44V76.1909ZM197.98 89.1509H215.125V95.0009H190.735V63.5009H214.54V69.3509H197.98V89.1509Z" stroke="#2A335C" stroke-width="4" mask="url(#path-1-outside-1_205_326)"/>
<path d="M221.013 95.0009V63.5009H228.258V84.0209L243.288 63.5009H250.128V95.0009H242.928V74.5259L227.898 95.0009H221.013ZM235.548 61.4759C232.548 61.4759 230.343 60.8759 228.933 59.6759C227.553 58.4759 226.848 56.7809 226.818 54.5909H231.813C231.843 55.6709 232.158 56.4959 232.758 57.0659C233.388 57.6059 234.318 57.8759 235.548 57.8759C236.748 57.8759 237.663 57.6059 238.293 57.0659C238.923 56.4959 239.253 55.6709 239.283 54.5909H244.278C244.248 56.7809 243.528 58.4759 242.118 59.6759C240.708 60.8759 238.518 61.4759 235.548 61.4759Z" stroke="#2A335C" stroke-width="4" mask="url(#path-1-outside-1_205_326)"/>
<path d="M306.355 95.0009L297.895 79.8359L304.06 76.2809L314.77 95.0009H306.355ZM292.54 82.3109V76.2359H302.35V82.3109H292.54ZM304.465 80.0609L297.715 79.2509L306.49 63.5009H314.185L304.465 80.0609ZM275.8 95.0009H267.385L278.095 76.2809L284.26 79.8359L275.8 95.0009ZM294.7 95.0009H287.545V63.5009H294.7V95.0009ZM289.66 82.3109H279.805V76.2359H289.66V82.3109ZM277.735 80.0609L267.97 63.5009H275.665L284.395 79.2509L277.735 80.0609Z" stroke="#2A335C" stroke-width="4" mask="url(#path-1-outside-1_205_326)"/>
<path d="M318.264 95.0009V63.5009H325.509V84.0209L340.539 63.5009H347.379V95.0009H340.179V74.5259L325.149 95.0009H318.264Z" stroke="#2A335C" stroke-width="4" mask="url(#path-1-outside-1_205_326)"/>
<path d="M352.387 92.2109L354.637 86.9909C355.987 87.8009 357.427 88.4309 358.957 88.8809C360.517 89.3009 362.032 89.5409 363.502 89.6009C365.002 89.6309 366.352 89.4809 367.552 89.1509C368.782 88.8209 369.757 88.3259 370.477 87.6659C371.227 87.0059 371.602 86.1659 371.602 85.1459C371.602 83.9459 371.107 83.0609 370.117 82.4909C369.127 81.8909 367.807 81.5909 366.157 81.5909H358.462V76.1009H365.617C367.087 76.1009 368.227 75.8009 369.037 75.2009C369.877 74.6009 370.297 73.7759 370.297 72.7259C370.297 71.8259 369.997 71.1059 369.397 70.5659C368.797 69.9959 367.972 69.5759 366.922 69.3059C365.902 69.0359 364.747 68.9159 363.457 68.9459C362.167 68.9759 360.832 69.1859 359.452 69.5759C358.072 69.9659 356.752 70.5059 355.492 71.1959L353.287 65.5709C355.327 64.5209 357.472 63.8009 359.722 63.4109C362.002 62.9909 364.192 62.8859 366.292 63.0959C368.422 63.2759 370.342 63.7559 372.052 64.5359C373.762 65.2859 375.127 66.2759 376.147 67.5059C377.167 68.7359 377.677 70.1909 377.677 71.8709C377.677 73.3709 377.287 74.7059 376.507 75.8759C375.727 77.0459 374.632 77.9459 373.222 78.5759C371.842 79.2059 370.252 79.5209 368.452 79.5209L368.632 77.9009C370.732 77.9009 372.547 78.2609 374.077 78.9809C375.637 79.6709 376.837 80.6459 377.677 81.9059C378.547 83.1359 378.982 84.5609 378.982 86.1809C378.982 87.6809 378.577 89.0309 377.767 90.2309C376.987 91.4009 375.907 92.3909 374.527 93.2009C373.147 94.0109 371.572 94.6109 369.802 95.0009C368.032 95.3909 366.142 95.5559 364.132 95.4959C362.152 95.4359 360.157 95.1509 358.147 94.6409C356.137 94.1009 354.217 93.2909 352.387 92.2109Z" stroke="#2A335C" stroke-width="4" mask="url(#path-1-outside-1_205_326)"/>
<path d="M406.353 63.5009H413.643V95.0009H406.353V63.5009ZM392.043 95.0009H384.753V63.5009H392.043V95.0009ZM406.893 82.0859H391.503V75.9209H406.893V82.0859Z" stroke="#2A335C" stroke-width="4" mask="url(#path-1-outside-1_205_326)"/>
<path d="M421.536 95.0009V63.5009H428.781V84.0209L443.811 63.5009H450.651V95.0009H443.451V74.5259L428.421 95.0009H421.536Z" stroke="#2A335C" stroke-width="4" mask="url(#path-1-outside-1_205_326)"/>
</g>
<defs>
<filter id="filter0_d_205_326" x="0.336365" y="0.960938" width="472.314" height="131.547" filterUnits="userSpaceOnUse" color-interpolation-filters="sRGB">
<feFlood flood-opacity="0" result="BackgroundImageFix"/>
<feColorMatrix in="SourceAlpha" type="matrix" values="0 0 0 0 0 0 0 0 0 0 0 0 0 0 0 0 0 0 127 0" result="hardAlpha"/>
<feOffset dy="15"/>
<feGaussianBlur stdDeviation="10"/>
<feColorMatrix type="matrix" values="0 0 0 0 0 0 0 0 0 0 0 0 0 0 0 0 0 0 0.05 0"/>
<feBlend mode="normal" in2="BackgroundImageFix" result="effect1_dropShadow_205_326"/>
<feBlend mode="normal" in="SourceGraphic" in2="effect1_dropShadow_205_326" result="shape"/>
</filter>
</defs>
</svg>
