<svg width="507" height="133" viewBox="0 0 507 133" fill="none" xmlns="http://www.w3.org/2000/svg">
<g filter="url(#filter0_d_205_327)">
<mask id="path-1-outside-1_205_327" maskUnits="userSpaceOnUse" x="20.0878" y="4.96094" width="467" height="93" fill="black">
<rect fill="white" x="20.0878" y="4.96094" width="467" height="93"/>
<path d="M137.225 40.0009V8.50094H165.935V40.0009H158.69V12.7759L160.355 14.4409H142.805L144.47 12.7759V40.0009H137.225Z"/>
<path d="M188.818 40.5409C186.328 40.5409 184.018 40.1359 181.888 39.3259C179.788 38.5159 177.958 37.3759 176.398 35.9059C174.868 34.4359 173.668 32.7109 172.798 30.7309C171.958 28.7509 171.538 26.5909 171.538 24.2509C171.538 21.9109 171.958 19.7509 172.798 17.7709C173.668 15.7909 174.883 14.0659 176.443 12.5959C178.003 11.1259 179.833 9.98594 181.933 9.17594C184.033 8.36594 186.313 7.96094 188.773 7.96094C191.263 7.96094 193.543 8.36594 195.613 9.17594C197.713 9.98594 199.528 11.1259 201.058 12.5959C202.618 14.0659 203.833 15.7909 204.703 17.7709C205.573 19.7209 206.008 21.8809 206.008 24.2509C206.008 26.5909 205.573 28.7659 204.703 30.7759C203.833 32.7559 202.618 34.4809 201.058 35.9509C199.528 37.3909 197.713 38.5159 195.613 39.3259C193.543 40.1359 191.278 40.5409 188.818 40.5409ZM188.773 34.3309C190.183 34.3309 191.473 34.0909 192.643 33.6109C193.843 33.1309 194.893 32.4409 195.793 31.5409C196.693 30.6409 197.383 29.5759 197.863 28.3459C198.373 27.1159 198.628 25.7509 198.628 24.2509C198.628 22.7509 198.373 21.3859 197.863 20.1559C197.383 18.9259 196.693 17.8609 195.793 16.9609C194.923 16.0609 193.888 15.3709 192.688 14.8909C191.488 14.4109 190.183 14.1709 188.773 14.1709C187.363 14.1709 186.058 14.4109 184.858 14.8909C183.688 15.3709 182.653 16.0609 181.753 16.9609C180.853 17.8609 180.148 18.9259 179.638 20.1559C179.158 21.3859 178.918 22.7509 178.918 24.2509C178.918 25.7209 179.158 27.0859 179.638 28.3459C180.148 29.5759 180.838 30.6409 181.708 31.5409C182.608 32.4409 183.658 33.1309 184.858 33.6109C186.058 34.0909 187.363 34.3309 188.773 34.3309Z"/>
<path d="M211.624 40.0009V8.50094H225.259C228.079 8.50094 230.509 8.96594 232.549 9.89594C234.589 10.7959 236.164 12.1009 237.274 13.8109C238.384 15.5209 238.939 17.5609 238.939 19.9309C238.939 22.2709 238.384 24.2959 237.274 26.0059C236.164 27.7159 234.589 29.0359 232.549 29.9659C230.509 30.8659 228.079 31.3159 225.259 31.3159H215.674L218.914 28.0309V40.0009H211.624ZM218.914 28.8409L215.674 25.3759H224.854C227.104 25.3759 228.784 24.8959 229.894 23.9359C231.004 22.9759 231.559 21.6409 231.559 19.9309C231.559 18.1909 231.004 16.8409 229.894 15.8809C228.784 14.9209 227.104 14.4409 224.854 14.4409H215.674L218.914 10.9759V28.8409Z"/>
<path d="M259.262 40.5409C256.772 40.5409 254.462 40.1359 252.332 39.3259C250.232 38.5159 248.402 37.3759 246.842 35.9059C245.312 34.4359 244.112 32.7109 243.242 30.7309C242.402 28.7509 241.982 26.5909 241.982 24.2509C241.982 21.9109 242.402 19.7509 243.242 17.7709C244.112 15.7909 245.327 14.0659 246.887 12.5959C248.447 11.1259 250.277 9.98594 252.377 9.17594C254.477 8.36594 256.757 7.96094 259.217 7.96094C261.707 7.96094 263.987 8.36594 266.057 9.17594C268.157 9.98594 269.972 11.1259 271.502 12.5959C273.062 14.0659 274.277 15.7909 275.147 17.7709C276.017 19.7209 276.452 21.8809 276.452 24.2509C276.452 26.5909 276.017 28.7659 275.147 30.7759C274.277 32.7559 273.062 34.4809 271.502 35.9509C269.972 37.3909 268.157 38.5159 266.057 39.3259C263.987 40.1359 261.722 40.5409 259.262 40.5409ZM259.217 34.3309C260.627 34.3309 261.917 34.0909 263.087 33.6109C264.287 33.1309 265.337 32.4409 266.237 31.5409C267.137 30.6409 267.827 29.5759 268.307 28.3459C268.817 27.1159 269.072 25.7509 269.072 24.2509C269.072 22.7509 268.817 21.3859 268.307 20.1559C267.827 18.9259 267.137 17.8609 266.237 16.9609C265.367 16.0609 264.332 15.3709 263.132 14.8909C261.932 14.4109 260.627 14.1709 259.217 14.1709C257.807 14.1709 256.502 14.4109 255.302 14.8909C254.132 15.3709 253.097 16.0609 252.197 16.9609C251.297 17.8609 250.592 18.9259 250.082 20.1559C249.602 21.3859 249.362 22.7509 249.362 24.2509C249.362 25.7209 249.602 27.0859 250.082 28.3459C250.592 29.5759 251.282 30.6409 252.152 31.5409C253.052 32.4409 254.102 33.1309 255.302 33.6109C256.502 34.0909 257.807 34.3309 259.217 34.3309Z"/>
<path d="M302.069 36.7609V14.4409H291.269L291.134 19.0309C291.044 20.9809 290.909 22.8259 290.729 24.5659C290.579 26.3059 290.339 27.8959 290.009 29.3359C289.679 30.7459 289.244 31.9459 288.704 32.9359C288.194 33.9259 287.549 34.6309 286.769 35.0509L278.984 34.0609C280.064 34.0909 280.949 33.7159 281.639 32.9359C282.359 32.1559 282.929 31.0609 283.349 29.6509C283.769 28.2109 284.069 26.5309 284.249 24.6109C284.459 22.6909 284.609 20.6059 284.699 18.3559L285.059 8.50094H309.269V36.7609H302.069ZM277.949 46.5259L277.994 34.0609H313.679V46.5259H306.929V40.0009H284.699V46.5259H277.949Z"/>
<path d="M333.842 18.8509C337.652 18.8509 340.592 19.7059 342.662 21.4159C344.732 23.0959 345.767 25.6309 345.767 29.0209C345.767 32.6209 344.612 35.3509 342.302 37.2109C340.022 39.0709 336.857 40.0009 332.807 40.0009H318.587V8.50094H325.832V18.8509H333.842ZM332.402 34.6009C334.262 34.6009 335.732 34.1359 336.812 33.2059C337.892 32.2759 338.432 30.9259 338.432 29.1559C338.432 27.4159 337.892 26.1709 336.812 25.4209C335.762 24.6409 334.292 24.2509 332.402 24.2509H325.832V34.6009H332.402ZM349.772 40.0009V8.50094H357.017V40.0009H349.772Z"/>
<path d="M22.0878 95.0009V63.5009H35.7228C38.5428 63.5009 40.9728 63.9659 43.0128 64.8959C45.0528 65.7959 46.6278 67.1009 47.7378 68.8109C48.8478 70.5209 49.4028 72.5609 49.4028 74.9309C49.4028 77.2709 48.8478 79.2959 47.7378 81.0059C46.6278 82.7159 45.0528 84.0359 43.0128 84.9659C40.9728 85.8659 38.5428 86.3159 35.7228 86.3159H26.1378L29.3778 83.0309V95.0009H22.0878ZM29.3778 83.8409L26.1378 80.3759H35.3178C37.5678 80.3759 39.2478 79.8959 40.3578 78.9359C41.4678 77.9759 42.0228 76.6409 42.0228 74.9309C42.0228 73.1909 41.4678 71.8409 40.3578 70.8809C39.2478 69.9209 37.5678 69.4409 35.3178 69.4409H26.1378L29.3778 65.9759V83.8409Z"/>
<path d="M54.5887 89.0609C56.3287 89.5709 57.7837 89.7209 58.9537 89.5109C60.1537 89.2709 61.2187 88.4309 62.1487 86.9909L63.6787 84.6959L64.3537 83.9309L74.7937 63.5009H81.9487L68.5387 88.4309C67.3387 90.6809 65.9137 92.4059 64.2637 93.6059C62.6437 94.8059 60.8587 95.4809 58.9087 95.6309C56.9587 95.8109 54.9337 95.4659 52.8337 94.5959L54.5887 89.0609ZM64.2187 90.0059L49.9987 63.5009H57.7837L68.2237 84.6509L64.2187 90.0059Z"/>
<path d="M99.9565 95.5409C97.5265 95.5409 95.2615 95.1509 93.1615 94.3709C91.0915 93.5609 89.2915 92.4209 87.7615 90.9509C86.2315 89.4809 85.0315 87.7559 84.1615 85.7759C83.3215 83.7959 82.9015 81.6209 82.9015 79.2509C82.9015 76.8809 83.3215 74.7059 84.1615 72.7259C85.0315 70.7459 86.2315 69.0209 87.7615 67.5509C89.3215 66.0809 91.1365 64.9559 93.2065 64.1759C95.2765 63.3659 97.5415 62.9609 100.001 62.9609C102.731 62.9609 105.191 63.4409 107.381 64.4009C109.601 65.3309 111.461 66.7109 112.961 68.5409L108.281 72.8609C107.201 71.6309 106.001 70.7159 104.681 70.1159C103.361 69.4859 101.921 69.1709 100.361 69.1709C98.8915 69.1709 97.5415 69.4109 96.3115 69.8909C95.0815 70.3709 94.0165 71.0609 93.1165 71.9609C92.2165 72.8609 91.5115 73.9259 91.0015 75.1559C90.5215 76.3859 90.2815 77.7509 90.2815 79.2509C90.2815 80.7509 90.5215 82.1159 91.0015 83.3459C91.5115 84.5759 92.2165 85.6409 93.1165 86.5409C94.0165 87.4409 95.0815 88.1309 96.3115 88.6109C97.5415 89.0909 98.8915 89.3309 100.361 89.3309C101.921 89.3309 103.361 89.0309 104.681 88.4309C106.001 87.8009 107.201 86.8559 108.281 85.5959L112.961 89.9159C111.461 91.7459 109.601 93.1409 107.381 94.1009C105.191 95.0609 102.716 95.5409 99.9565 95.5409Z"/>
<path d="M131.949 95.5409C129.519 95.5409 127.254 95.1509 125.154 94.3709C123.084 93.5609 121.284 92.4209 119.754 90.9509C118.224 89.4809 117.024 87.7559 116.154 85.7759C115.314 83.7959 114.894 81.6209 114.894 79.2509C114.894 76.8809 115.314 74.7059 116.154 72.7259C117.024 70.7459 118.224 69.0209 119.754 67.5509C121.314 66.0809 123.129 64.9559 125.199 64.1759C127.269 63.3659 129.534 62.9609 131.994 62.9609C134.724 62.9609 137.184 63.4409 139.374 64.4009C141.594 65.3309 143.454 66.7109 144.954 68.5409L140.274 72.8609C139.194 71.6309 137.994 70.7159 136.674 70.1159C135.354 69.4859 133.914 69.1709 132.354 69.1709C130.884 69.1709 129.534 69.4109 128.304 69.8909C127.074 70.3709 126.009 71.0609 125.109 71.9609C124.209 72.8609 123.504 73.9259 122.994 75.1559C122.514 76.3859 122.274 77.7509 122.274 79.2509C122.274 80.7509 122.514 82.1159 122.994 83.3459C123.504 84.5759 124.209 85.6409 125.109 86.5409C126.009 87.4409 127.074 88.1309 128.304 88.6109C129.534 89.0909 130.884 89.3309 132.354 89.3309C133.914 89.3309 135.354 89.0309 136.674 88.4309C137.994 87.8009 139.194 86.8559 140.274 85.5959L144.954 89.9159C143.454 91.7459 141.594 93.1409 139.374 94.1009C137.184 95.0609 134.709 95.5409 131.949 95.5409Z"/>
<path d="M170.09 95.0009L160.28 79.8359L166.175 76.2809L178.37 95.0009H170.09ZM149.615 95.0009V63.5009H156.86V95.0009H149.615ZM154.745 82.3109V76.2359H165.725V82.3109H154.745ZM166.85 80.0609L160.145 79.2509L170.36 63.5009H178.055L166.85 80.0609Z"/>
<path d="M181.785 95.0009V63.5009H189.03V84.0209L204.06 63.5009H210.9V95.0009H203.7V74.5259L188.67 95.0009H181.785Z"/>
<path d="M215.998 63.5009H224.413L230.938 73.0409L237.463 63.5009H246.013L235.528 78.5759L246.868 95.0009H238.273L230.938 84.5609L223.693 95.0009H215.278L226.528 78.8909L215.998 63.5009Z"/>
<path d="M263.963 95.0009V63.5009H286.193L286.148 69.4409H269.498L271.163 67.7759L271.208 95.0009H263.963Z"/>
<path d="M302.505 95.5409C300.015 95.5409 297.705 95.1359 295.575 94.3259C293.475 93.5159 291.645 92.3759 290.085 90.9059C288.555 89.4359 287.355 87.7109 286.485 85.7309C285.645 83.7509 285.225 81.5909 285.225 79.2509C285.225 76.9109 285.645 74.7509 286.485 72.7709C287.355 70.7909 288.57 69.0659 290.13 67.5959C291.69 66.1259 293.52 64.9859 295.62 64.1759C297.72 63.3659 300 62.9609 302.46 62.9609C304.95 62.9609 307.23 63.3659 309.3 64.1759C311.4 64.9859 313.215 66.1259 314.745 67.5959C316.305 69.0659 317.52 70.7909 318.39 72.7709C319.26 74.7209 319.695 76.8809 319.695 79.2509C319.695 81.5909 319.26 83.7659 318.39 85.7759C317.52 87.7559 316.305 89.4809 314.745 90.9509C313.215 92.3909 311.4 93.5159 309.3 94.3259C307.23 95.1359 304.965 95.5409 302.505 95.5409ZM302.46 89.3309C303.87 89.3309 305.16 89.0909 306.33 88.6109C307.53 88.1309 308.58 87.4409 309.48 86.5409C310.38 85.6409 311.07 84.5759 311.55 83.3459C312.06 82.1159 312.315 80.7509 312.315 79.2509C312.315 77.7509 312.06 76.3859 311.55 75.1559C311.07 73.9259 310.38 72.8609 309.48 71.9609C308.61 71.0609 307.575 70.3709 306.375 69.8909C305.175 69.4109 303.87 69.1709 302.46 69.1709C301.05 69.1709 299.745 69.4109 298.545 69.8909C297.375 70.3709 296.34 71.0609 295.44 71.9609C294.54 72.8609 293.835 73.9259 293.325 75.1559C292.845 76.3859 292.605 77.7509 292.605 79.2509C292.605 80.7209 292.845 82.0859 293.325 83.3459C293.835 84.5759 294.525 85.6409 295.395 86.5409C296.295 87.4409 297.345 88.1309 298.545 88.6109C299.745 89.0909 301.05 89.3309 302.46 89.3309Z"/>
<path d="M324.747 95.4959C324.207 95.4959 323.637 95.4509 323.037 95.3609C322.467 95.2709 321.837 95.1509 321.147 95.0009L321.597 88.8359C322.017 88.9559 322.452 89.0159 322.902 89.0159C324.132 89.0159 325.092 88.5209 325.782 87.5309C326.472 86.5109 326.967 85.0559 327.267 83.1659C327.567 81.2759 327.762 78.9809 327.852 76.2809L328.302 63.5009H352.512V95.0009H345.312V67.7759L346.977 69.4409H333.072L334.557 67.6859L334.287 76.0109C334.197 79.1009 333.987 81.8459 333.657 84.2459C333.327 86.6459 332.817 88.6859 332.127 90.3659C331.437 92.0459 330.492 93.3209 329.292 94.1909C328.092 95.0609 326.577 95.4959 324.747 95.4959Z"/>
<path d="M361.459 89.0609C363.199 89.5709 364.654 89.7209 365.824 89.5109C367.024 89.2709 368.089 88.4309 369.019 86.9909L370.549 84.6959L371.224 83.9309L381.664 63.5009H388.819L375.409 88.4309C374.209 90.6809 372.784 92.4059 371.134 93.6059C369.514 94.8059 367.729 95.4809 365.779 95.6309C363.829 95.8109 361.804 95.4659 359.704 94.5959L361.459 89.0609ZM371.089 90.0059L356.869 63.5009H364.654L375.094 84.6509L371.089 90.0059Z"/>
<path d="M392.283 95.0009V63.5009H417.708V69.3059H399.528V75.7859H408.258C412.068 75.7859 414.963 76.5809 416.943 78.1709C418.953 79.7609 419.958 82.0709 419.958 85.1009C419.958 88.2209 418.848 90.6509 416.628 92.3909C414.408 94.1309 411.273 95.0009 407.223 95.0009H392.283ZM399.528 89.6009H406.818C408.678 89.6009 410.103 89.2409 411.093 88.5209C412.083 87.7709 412.578 86.6909 412.578 85.2809C412.578 82.5209 410.658 81.1409 406.818 81.1409H399.528V89.6009Z"/>
<path d="M432.211 76.1909H447.376V81.8609H432.211V76.1909ZM432.751 89.1509H449.896V95.0009H425.506V63.5009H449.311V69.3509H432.751V89.1509Z"/>
<path d="M455.784 95.0009V63.5009H463.029V84.0209L478.059 63.5009H484.899V95.0009H477.699V74.5259L462.669 95.0009H455.784ZM470.319 61.4759C467.319 61.4759 465.114 60.8759 463.704 59.6759C462.324 58.4759 461.619 56.7809 461.589 54.5909H466.584C466.614 55.6709 466.929 56.4959 467.529 57.0659C468.159 57.6059 469.089 57.8759 470.319 57.8759C471.519 57.8759 472.434 57.6059 473.064 57.0659C473.694 56.4959 474.024 55.6709 474.054 54.5909H479.049C479.019 56.7809 478.299 58.4759 476.889 59.6759C475.479 60.8759 473.289 61.4759 470.319 61.4759Z"/>
</mask>
<path d="M137.225 40.0009V8.50094H165.935V40.0009H158.69V12.7759L160.355 14.4409H142.805L144.47 12.7759V40.0009H137.225Z" fill="white"/>
<path d="M188.818 40.5409C186.328 40.5409 184.018 40.1359 181.888 39.3259C179.788 38.5159 177.958 37.3759 176.398 35.9059C174.868 34.4359 173.668 32.7109 172.798 30.7309C171.958 28.7509 171.538 26.5909 171.538 24.2509C171.538 21.9109 171.958 19.7509 172.798 17.7709C173.668 15.7909 174.883 14.0659 176.443 12.5959C178.003 11.1259 179.833 9.98594 181.933 9.17594C184.033 8.36594 186.313 7.96094 188.773 7.96094C191.263 7.96094 193.543 8.36594 195.613 9.17594C197.713 9.98594 199.528 11.1259 201.058 12.5959C202.618 14.0659 203.833 15.7909 204.703 17.7709C205.573 19.7209 206.008 21.8809 206.008 24.2509C206.008 26.5909 205.573 28.7659 204.703 30.7759C203.833 32.7559 202.618 34.4809 201.058 35.9509C199.528 37.3909 197.713 38.5159 195.613 39.3259C193.543 40.1359 191.278 40.5409 188.818 40.5409ZM188.773 34.3309C190.183 34.3309 191.473 34.0909 192.643 33.6109C193.843 33.1309 194.893 32.4409 195.793 31.5409C196.693 30.6409 197.383 29.5759 197.863 28.3459C198.373 27.1159 198.628 25.7509 198.628 24.2509C198.628 22.7509 198.373 21.3859 197.863 20.1559C197.383 18.9259 196.693 17.8609 195.793 16.9609C194.923 16.0609 193.888 15.3709 192.688 14.8909C191.488 14.4109 190.183 14.1709 188.773 14.1709C187.363 14.1709 186.058 14.4109 184.858 14.8909C183.688 15.3709 182.653 16.0609 181.753 16.9609C180.853 17.8609 180.148 18.9259 179.638 20.1559C179.158 21.3859 178.918 22.7509 178.918 24.2509C178.918 25.7209 179.158 27.0859 179.638 28.3459C180.148 29.5759 180.838 30.6409 181.708 31.5409C182.608 32.4409 183.658 33.1309 184.858 33.6109C186.058 34.0909 187.363 34.3309 188.773 34.3309Z" fill="white"/>
<path d="M211.624 40.0009V8.50094H225.259C228.079 8.50094 230.509 8.96594 232.549 9.89594C234.589 10.7959 236.164 12.1009 237.274 13.8109C238.384 15.5209 238.939 17.5609 238.939 19.9309C238.939 22.2709 238.384 24.2959 237.274 26.0059C236.164 27.7159 234.589 29.0359 232.549 29.9659C230.509 30.8659 228.079 31.3159 225.259 31.3159H215.674L218.914 28.0309V40.0009H211.624ZM218.914 28.8409L215.674 25.3759H224.854C227.104 25.3759 228.784 24.8959 229.894 23.9359C231.004 22.9759 231.559 21.6409 231.559 19.9309C231.559 18.1909 231.004 16.8409 229.894 15.8809C228.784 14.9209 227.104 14.4409 224.854 14.4409H215.674L218.914 10.9759V28.8409Z" fill="white"/>
<path d="M259.262 40.5409C256.772 40.5409 254.462 40.1359 252.332 39.3259C250.232 38.5159 248.402 37.3759 246.842 35.9059C245.312 34.4359 244.112 32.7109 243.242 30.7309C242.402 28.7509 241.982 26.5909 241.982 24.2509C241.982 21.9109 242.402 19.7509 243.242 17.7709C244.112 15.7909 245.327 14.0659 246.887 12.5959C248.447 11.1259 250.277 9.98594 252.377 9.17594C254.477 8.36594 256.757 7.96094 259.217 7.96094C261.707 7.96094 263.987 8.36594 266.057 9.17594C268.157 9.98594 269.972 11.1259 271.502 12.5959C273.062 14.0659 274.277 15.7909 275.147 17.7709C276.017 19.7209 276.452 21.8809 276.452 24.2509C276.452 26.5909 276.017 28.7659 275.147 30.7759C274.277 32.7559 273.062 34.4809 271.502 35.9509C269.972 37.3909 268.157 38.5159 266.057 39.3259C263.987 40.1359 261.722 40.5409 259.262 40.5409ZM259.217 34.3309C260.627 34.3309 261.917 34.0909 263.087 33.6109C264.287 33.1309 265.337 32.4409 266.237 31.5409C267.137 30.6409 267.827 29.5759 268.307 28.3459C268.817 27.1159 269.072 25.7509 269.072 24.2509C269.072 22.7509 268.817 21.3859 268.307 20.1559C267.827 18.9259 267.137 17.8609 266.237 16.9609C265.367 16.0609 264.332 15.3709 263.132 14.8909C261.932 14.4109 260.627 14.1709 259.217 14.1709C257.807 14.1709 256.502 14.4109 255.302 14.8909C254.132 15.3709 253.097 16.0609 252.197 16.9609C251.297 17.8609 250.592 18.9259 250.082 20.1559C249.602 21.3859 249.362 22.7509 249.362 24.2509C249.362 25.7209 249.602 27.0859 250.082 28.3459C250.592 29.5759 251.282 30.6409 252.152 31.5409C253.052 32.4409 254.102 33.1309 255.302 33.6109C256.502 34.0909 257.807 34.3309 259.217 34.3309Z" fill="white"/>
<path d="M302.069 36.7609V14.4409H291.269L291.134 19.0309C291.044 20.9809 290.909 22.8259 290.729 24.5659C290.579 26.3059 290.339 27.8959 290.009 29.3359C289.679 30.7459 289.244 31.9459 288.704 32.9359C288.194 33.9259 287.549 34.6309 286.769 35.0509L278.984 34.0609C280.064 34.0909 280.949 33.7159 281.639 32.9359C282.359 32.1559 282.929 31.0609 283.349 29.6509C283.769 28.2109 284.069 26.5309 284.249 24.6109C284.459 22.6909 284.609 20.6059 284.699 18.3559L285.059 8.50094H309.269V36.7609H302.069ZM277.949 46.5259L277.994 34.0609H313.679V46.5259H306.929V40.0009H284.699V46.5259H277.949Z" fill="white"/>
<path d="M333.842 18.8509C337.652 18.8509 340.592 19.7059 342.662 21.4159C344.732 23.0959 345.767 25.6309 345.767 29.0209C345.767 32.6209 344.612 35.3509 342.302 37.2109C340.022 39.0709 336.857 40.0009 332.807 40.0009H318.587V8.50094H325.832V18.8509H333.842ZM332.402 34.6009C334.262 34.6009 335.732 34.1359 336.812 33.2059C337.892 32.2759 338.432 30.9259 338.432 29.1559C338.432 27.4159 337.892 26.1709 336.812 25.4209C335.762 24.6409 334.292 24.2509 332.402 24.2509H325.832V34.6009H332.402ZM349.772 40.0009V8.50094H357.017V40.0009H349.772Z" fill="white"/>
<path d="M22.0878 95.0009V63.5009H35.7228C38.5428 63.5009 40.9728 63.9659 43.0128 64.8959C45.0528 65.7959 46.6278 67.1009 47.7378 68.8109C48.8478 70.5209 49.4028 72.5609 49.4028 74.9309C49.4028 77.2709 48.8478 79.2959 47.7378 81.0059C46.6278 82.7159 45.0528 84.0359 43.0128 84.9659C40.9728 85.8659 38.5428 86.3159 35.7228 86.3159H26.1378L29.3778 83.0309V95.0009H22.0878ZM29.3778 83.8409L26.1378 80.3759H35.3178C37.5678 80.3759 39.2478 79.8959 40.3578 78.9359C41.4678 77.9759 42.0228 76.6409 42.0228 74.9309C42.0228 73.1909 41.4678 71.8409 40.3578 70.8809C39.2478 69.9209 37.5678 69.4409 35.3178 69.4409H26.1378L29.3778 65.9759V83.8409Z" fill="white"/>
<path d="M54.5887 89.0609C56.3287 89.5709 57.7837 89.7209 58.9537 89.5109C60.1537 89.2709 61.2187 88.4309 62.1487 86.9909L63.6787 84.6959L64.3537 83.9309L74.7937 63.5009H81.9487L68.5387 88.4309C67.3387 90.6809 65.9137 92.4059 64.2637 93.6059C62.6437 94.8059 60.8587 95.4809 58.9087 95.6309C56.9587 95.8109 54.9337 95.4659 52.8337 94.5959L54.5887 89.0609ZM64.2187 90.0059L49.9987 63.5009H57.7837L68.2237 84.6509L64.2187 90.0059Z" fill="white"/>
<path d="M99.9565 95.5409C97.5265 95.5409 95.2615 95.1509 93.1615 94.3709C91.0915 93.5609 89.2915 92.4209 87.7615 90.9509C86.2315 89.4809 85.0315 87.7559 84.1615 85.7759C83.3215 83.7959 82.9015 81.6209 82.9015 79.2509C82.9015 76.8809 83.3215 74.7059 84.1615 72.7259C85.0315 70.7459 86.2315 69.0209 87.7615 67.5509C89.3215 66.0809 91.1365 64.9559 93.2065 64.1759C95.2765 63.3659 97.5415 62.9609 100.001 62.9609C102.731 62.9609 105.191 63.4409 107.381 64.4009C109.601 65.3309 111.461 66.7109 112.961 68.5409L108.281 72.8609C107.201 71.6309 106.001 70.7159 104.681 70.1159C103.361 69.4859 101.921 69.1709 100.361 69.1709C98.8915 69.1709 97.5415 69.4109 96.3115 69.8909C95.0815 70.3709 94.0165 71.0609 93.1165 71.9609C92.2165 72.8609 91.5115 73.9259 91.0015 75.1559C90.5215 76.3859 90.2815 77.7509 90.2815 79.2509C90.2815 80.7509 90.5215 82.1159 91.0015 83.3459C91.5115 84.5759 92.2165 85.6409 93.1165 86.5409C94.0165 87.4409 95.0815 88.1309 96.3115 88.6109C97.5415 89.0909 98.8915 89.3309 100.361 89.3309C101.921 89.3309 103.361 89.0309 104.681 88.4309C106.001 87.8009 107.201 86.8559 108.281 85.5959L112.961 89.9159C111.461 91.7459 109.601 93.1409 107.381 94.1009C105.191 95.0609 102.716 95.5409 99.9565 95.5409Z" fill="white"/>
<path d="M131.949 95.5409C129.519 95.5409 127.254 95.1509 125.154 94.3709C123.084 93.5609 121.284 92.4209 119.754 90.9509C118.224 89.4809 117.024 87.7559 116.154 85.7759C115.314 83.7959 114.894 81.6209 114.894 79.2509C114.894 76.8809 115.314 74.7059 116.154 72.7259C117.024 70.7459 118.224 69.0209 119.754 67.5509C121.314 66.0809 123.129 64.9559 125.199 64.1759C127.269 63.3659 129.534 62.9609 131.994 62.9609C134.724 62.9609 137.184 63.4409 139.374 64.4009C141.594 65.3309 143.454 66.7109 144.954 68.5409L140.274 72.8609C139.194 71.6309 137.994 70.7159 136.674 70.1159C135.354 69.4859 133.914 69.1709 132.354 69.1709C130.884 69.1709 129.534 69.4109 128.304 69.8909C127.074 70.3709 126.009 71.0609 125.109 71.9609C124.209 72.8609 123.504 73.9259 122.994 75.1559C122.514 76.3859 122.274 77.7509 122.274 79.2509C122.274 80.7509 122.514 82.1159 122.994 83.3459C123.504 84.5759 124.209 85.6409 125.109 86.5409C126.009 87.4409 127.074 88.1309 128.304 88.6109C129.534 89.0909 130.884 89.3309 132.354 89.3309C133.914 89.3309 135.354 89.0309 136.674 88.4309C137.994 87.8009 139.194 86.8559 140.274 85.5959L144.954 89.9159C143.454 91.7459 141.594 93.1409 139.374 94.1009C137.184 95.0609 134.709 95.5409 131.949 95.5409Z" fill="white"/>
<path d="M170.09 95.0009L160.28 79.8359L166.175 76.2809L178.37 95.0009H170.09ZM149.615 95.0009V63.5009H156.86V95.0009H149.615ZM154.745 82.3109V76.2359H165.725V82.3109H154.745ZM166.85 80.0609L160.145 79.2509L170.36 63.5009H178.055L166.85 80.0609Z" fill="white"/>
<path d="M181.785 95.0009V63.5009H189.03V84.0209L204.06 63.5009H210.9V95.0009H203.7V74.5259L188.67 95.0009H181.785Z" fill="white"/>
<path d="M215.998 63.5009H224.413L230.938 73.0409L237.463 63.5009H246.013L235.528 78.5759L246.868 95.0009H238.273L230.938 84.5609L223.693 95.0009H215.278L226.528 78.8909L215.998 63.5009Z" fill="white"/>
<path d="M263.963 95.0009V63.5009H286.193L286.148 69.4409H269.498L271.163 67.7759L271.208 95.0009H263.963Z" fill="white"/>
<path d="M302.505 95.5409C300.015 95.5409 297.705 95.1359 295.575 94.3259C293.475 93.5159 291.645 92.3759 290.085 90.9059C288.555 89.4359 287.355 87.7109 286.485 85.7309C285.645 83.7509 285.225 81.5909 285.225 79.2509C285.225 76.9109 285.645 74.7509 286.485 72.7709C287.355 70.7909 288.57 69.0659 290.13 67.5959C291.69 66.1259 293.52 64.9859 295.62 64.1759C297.72 63.3659 300 62.9609 302.46 62.9609C304.95 62.9609 307.23 63.3659 309.3 64.1759C311.4 64.9859 313.215 66.1259 314.745 67.5959C316.305 69.0659 317.52 70.7909 318.39 72.7709C319.26 74.7209 319.695 76.8809 319.695 79.2509C319.695 81.5909 319.26 83.7659 318.39 85.7759C317.52 87.7559 316.305 89.4809 314.745 90.9509C313.215 92.3909 311.4 93.5159 309.3 94.3259C307.23 95.1359 304.965 95.5409 302.505 95.5409ZM302.46 89.3309C303.87 89.3309 305.16 89.0909 306.33 88.6109C307.53 88.1309 308.58 87.4409 309.48 86.5409C310.38 85.6409 311.07 84.5759 311.55 83.3459C312.06 82.1159 312.315 80.7509 312.315 79.2509C312.315 77.7509 312.06 76.3859 311.55 75.1559C311.07 73.9259 310.38 72.8609 309.48 71.9609C308.61 71.0609 307.575 70.3709 306.375 69.8909C305.175 69.4109 303.87 69.1709 302.46 69.1709C301.05 69.1709 299.745 69.4109 298.545 69.8909C297.375 70.3709 296.34 71.0609 295.44 71.9609C294.54 72.8609 293.835 73.9259 293.325 75.1559C292.845 76.3859 292.605 77.7509 292.605 79.2509C292.605 80.7209 292.845 82.0859 293.325 83.3459C293.835 84.5759 294.525 85.6409 295.395 86.5409C296.295 87.4409 297.345 88.1309 298.545 88.6109C299.745 89.0909 301.05 89.3309 302.46 89.3309Z" fill="white"/>
<path d="M324.747 95.4959C324.207 95.4959 323.637 95.4509 323.037 95.3609C322.467 95.2709 321.837 95.1509 321.147 95.0009L321.597 88.8359C322.017 88.9559 322.452 89.0159 322.902 89.0159C324.132 89.0159 325.092 88.5209 325.782 87.5309C326.472 86.5109 326.967 85.0559 327.267 83.1659C327.567 81.2759 327.762 78.9809 327.852 76.2809L328.302 63.5009H352.512V95.0009H345.312V67.7759L346.977 69.4409H333.072L334.557 67.6859L334.287 76.0109C334.197 79.1009 333.987 81.8459 333.657 84.2459C333.327 86.6459 332.817 88.6859 332.127 90.3659C331.437 92.0459 330.492 93.3209 329.292 94.1909C328.092 95.0609 326.577 95.4959 324.747 95.4959Z" fill="white"/>
<path d="M361.459 89.0609C363.199 89.5709 364.654 89.7209 365.824 89.5109C367.024 89.2709 368.089 88.4309 369.019 86.9909L370.549 84.6959L371.224 83.9309L381.664 63.5009H388.819L375.409 88.4309C374.209 90.6809 372.784 92.4059 371.134 93.6059C369.514 94.8059 367.729 95.4809 365.779 95.6309C363.829 95.8109 361.804 95.4659 359.704 94.5959L361.459 89.0609ZM371.089 90.0059L356.869 63.5009H364.654L375.094 84.6509L371.089 90.0059Z" fill="white"/>
<path d="M392.283 95.0009V63.5009H417.708V69.3059H399.528V75.7859H408.258C412.068 75.7859 414.963 76.5809 416.943 78.1709C418.953 79.7609 419.958 82.0709 419.958 85.1009C419.958 88.2209 418.848 90.6509 416.628 92.3909C414.408 94.1309 411.273 95.0009 407.223 95.0009H392.283ZM399.528 89.6009H406.818C408.678 89.6009 410.103 89.2409 411.093 88.5209C412.083 87.7709 412.578 86.6909 412.578 85.2809C412.578 82.5209 410.658 81.1409 406.818 81.1409H399.528V89.6009Z" fill="white"/>
<path d="M432.211 76.1909H447.376V81.8609H432.211V76.1909ZM432.751 89.1509H449.896V95.0009H425.506V63.5009H449.311V69.3509H432.751V89.1509Z" fill="white"/>
<path d="M455.784 95.0009V63.5009H463.029V84.0209L478.059 63.5009H484.899V95.0009H477.699V74.5259L462.669 95.0009H455.784ZM470.319 61.4759C467.319 61.4759 465.114 60.8759 463.704 59.6759C462.324 58.4759 461.619 56.7809 461.589 54.5909H466.584C466.614 55.6709 466.929 56.4959 467.529 57.0659C468.159 57.6059 469.089 57.8759 470.319 57.8759C471.519 57.8759 472.434 57.6059 473.064 57.0659C473.694 56.4959 474.024 55.6709 474.054 54.5909H479.049C479.019 56.7809 478.299 58.4759 476.889 59.6759C475.479 60.8759 473.289 61.4759 470.319 61.4759Z" fill="white"/>
<path d="M137.225 40.0009V8.50094H165.935V40.0009H158.69V12.7759L160.355 14.4409H142.805L144.47 12.7759V40.0009H137.225Z" stroke="#2A335C" stroke-width="4" mask="url(#path-1-outside-1_205_327)"/>
<path d="M188.818 40.5409C186.328 40.5409 184.018 40.1359 181.888 39.3259C179.788 38.5159 177.958 37.3759 176.398 35.9059C174.868 34.4359 173.668 32.7109 172.798 30.7309C171.958 28.7509 171.538 26.5909 171.538 24.2509C171.538 21.9109 171.958 19.7509 172.798 17.7709C173.668 15.7909 174.883 14.0659 176.443 12.5959C178.003 11.1259 179.833 9.98594 181.933 9.17594C184.033 8.36594 186.313 7.96094 188.773 7.96094C191.263 7.96094 193.543 8.36594 195.613 9.17594C197.713 9.98594 199.528 11.1259 201.058 12.5959C202.618 14.0659 203.833 15.7909 204.703 17.7709C205.573 19.7209 206.008 21.8809 206.008 24.2509C206.008 26.5909 205.573 28.7659 204.703 30.7759C203.833 32.7559 202.618 34.4809 201.058 35.9509C199.528 37.3909 197.713 38.5159 195.613 39.3259C193.543 40.1359 191.278 40.5409 188.818 40.5409ZM188.773 34.3309C190.183 34.3309 191.473 34.0909 192.643 33.6109C193.843 33.1309 194.893 32.4409 195.793 31.5409C196.693 30.6409 197.383 29.5759 197.863 28.3459C198.373 27.1159 198.628 25.7509 198.628 24.2509C198.628 22.7509 198.373 21.3859 197.863 20.1559C197.383 18.9259 196.693 17.8609 195.793 16.9609C194.923 16.0609 193.888 15.3709 192.688 14.8909C191.488 14.4109 190.183 14.1709 188.773 14.1709C187.363 14.1709 186.058 14.4109 184.858 14.8909C183.688 15.3709 182.653 16.0609 181.753 16.9609C180.853 17.8609 180.148 18.9259 179.638 20.1559C179.158 21.3859 178.918 22.7509 178.918 24.2509C178.918 25.7209 179.158 27.0859 179.638 28.3459C180.148 29.5759 180.838 30.6409 181.708 31.5409C182.608 32.4409 183.658 33.1309 184.858 33.6109C186.058 34.0909 187.363 34.3309 188.773 34.3309Z" stroke="#2A335C" stroke-width="4" mask="url(#path-1-outside-1_205_327)"/>
<path d="M211.624 40.0009V8.50094H225.259C228.079 8.50094 230.509 8.96594 232.549 9.89594C234.589 10.7959 236.164 12.1009 237.274 13.8109C238.384 15.5209 238.939 17.5609 238.939 19.9309C238.939 22.2709 238.384 24.2959 237.274 26.0059C236.164 27.7159 234.589 29.0359 232.549 29.9659C230.509 30.8659 228.079 31.3159 225.259 31.3159H215.674L218.914 28.0309V40.0009H211.624ZM218.914 28.8409L215.674 25.3759H224.854C227.104 25.3759 228.784 24.8959 229.894 23.9359C231.004 22.9759 231.559 21.6409 231.559 19.9309C231.559 18.1909 231.004 16.8409 229.894 15.8809C228.784 14.9209 227.104 14.4409 224.854 14.4409H215.674L218.914 10.9759V28.8409Z" stroke="#2A335C" stroke-width="4" mask="url(#path-1-outside-1_205_327)"/>
<path d="M259.262 40.5409C256.772 40.5409 254.462 40.1359 252.332 39.3259C250.232 38.5159 248.402 37.3759 246.842 35.9059C245.312 34.4359 244.112 32.7109 243.242 30.7309C242.402 28.7509 241.982 26.5909 241.982 24.2509C241.982 21.9109 242.402 19.7509 243.242 17.7709C244.112 15.7909 245.327 14.0659 246.887 12.5959C248.447 11.1259 250.277 9.98594 252.377 9.17594C254.477 8.36594 256.757 7.96094 259.217 7.96094C261.707 7.96094 263.987 8.36594 266.057 9.17594C268.157 9.98594 269.972 11.1259 271.502 12.5959C273.062 14.0659 274.277 15.7909 275.147 17.7709C276.017 19.7209 276.452 21.8809 276.452 24.2509C276.452 26.5909 276.017 28.7659 275.147 30.7759C274.277 32.7559 273.062 34.4809 271.502 35.9509C269.972 37.3909 268.157 38.5159 266.057 39.3259C263.987 40.1359 261.722 40.5409 259.262 40.5409ZM259.217 34.3309C260.627 34.3309 261.917 34.0909 263.087 33.6109C264.287 33.1309 265.337 32.4409 266.237 31.5409C267.137 30.6409 267.827 29.5759 268.307 28.3459C268.817 27.1159 269.072 25.7509 269.072 24.2509C269.072 22.7509 268.817 21.3859 268.307 20.1559C267.827 18.9259 267.137 17.8609 266.237 16.9609C265.367 16.0609 264.332 15.3709 263.132 14.8909C261.932 14.4109 260.627 14.1709 259.217 14.1709C257.807 14.1709 256.502 14.4109 255.302 14.8909C254.132 15.3709 253.097 16.0609 252.197 16.9609C251.297 17.8609 250.592 18.9259 250.082 20.1559C249.602 21.3859 249.362 22.7509 249.362 24.2509C249.362 25.7209 249.602 27.0859 250.082 28.3459C250.592 29.5759 251.282 30.6409 252.152 31.5409C253.052 32.4409 254.102 33.1309 255.302 33.6109C256.502 34.0909 257.807 34.3309 259.217 34.3309Z" stroke="#2A335C" stroke-width="4" mask="url(#path-1-outside-1_205_327)"/>
<path d="M302.069 36.7609V14.4409H291.269L291.134 19.0309C291.044 20.9809 290.909 22.8259 290.729 24.5659C290.579 26.3059 290.339 27.8959 290.009 29.3359C289.679 30.7459 289.244 31.9459 288.704 32.9359C288.194 33.9259 287.549 34.6309 286.769 35.0509L278.984 34.0609C280.064 34.0909 280.949 33.7159 281.639 32.9359C282.359 32.1559 282.929 31.0609 283.349 29.6509C283.769 28.2109 284.069 26.5309 284.249 24.6109C284.459 22.6909 284.609 20.6059 284.699 18.3559L285.059 8.50094H309.269V36.7609H302.069ZM277.949 46.5259L277.994 34.0609H313.679V46.5259H306.929V40.0009H284.699V46.5259H277.949Z" stroke="#2A335C" stroke-width="4" mask="url(#path-1-outside-1_205_327)"/>
<path d="M333.842 18.8509C337.652 18.8509 340.592 19.7059 342.662 21.4159C344.732 23.0959 345.767 25.6309 345.767 29.0209C345.767 32.6209 344.612 35.3509 342.302 37.2109C340.022 39.0709 336.857 40.0009 332.807 40.0009H318.587V8.50094H325.832V18.8509H333.842ZM332.402 34.6009C334.262 34.6009 335.732 34.1359 336.812 33.2059C337.892 32.2759 338.432 30.9259 338.432 29.1559C338.432 27.4159 337.892 26.1709 336.812 25.4209C335.762 24.6409 334.292 24.2509 332.402 24.2509H325.832V34.6009H332.402ZM349.772 40.0009V8.50094H357.017V40.0009H349.772Z" stroke="#2A335C" stroke-width="4" mask="url(#path-1-outside-1_205_327)"/>
<path d="M22.0878 95.0009V63.5009H35.7228C38.5428 63.5009 40.9728 63.9659 43.0128 64.8959C45.0528 65.7959 46.6278 67.1009 47.7378 68.8109C48.8478 70.5209 49.4028 72.5609 49.4028 74.9309C49.4028 77.2709 48.8478 79.2959 47.7378 81.0059C46.6278 82.7159 45.0528 84.0359 43.0128 84.9659C40.9728 85.8659 38.5428 86.3159 35.7228 86.3159H26.1378L29.3778 83.0309V95.0009H22.0878ZM29.3778 83.8409L26.1378 80.3759H35.3178C37.5678 80.3759 39.2478 79.8959 40.3578 78.9359C41.4678 77.9759 42.0228 76.6409 42.0228 74.9309C42.0228 73.1909 41.4678 71.8409 40.3578 70.8809C39.2478 69.9209 37.5678 69.4409 35.3178 69.4409H26.1378L29.3778 65.9759V83.8409Z" stroke="#2A335C" stroke-width="4" mask="url(#path-1-outside-1_205_327)"/>
<path d="M54.5887 89.0609C56.3287 89.5709 57.7837 89.7209 58.9537 89.5109C60.1537 89.2709 61.2187 88.4309 62.1487 86.9909L63.6787 84.6959L64.3537 83.9309L74.7937 63.5009H81.9487L68.5387 88.4309C67.3387 90.6809 65.9137 92.4059 64.2637 93.6059C62.6437 94.8059 60.8587 95.4809 58.9087 95.6309C56.9587 95.8109 54.9337 95.4659 52.8337 94.5959L54.5887 89.0609ZM64.2187 90.0059L49.9987 63.5009H57.7837L68.2237 84.6509L64.2187 90.0059Z" stroke="#2A335C" stroke-width="4" mask="url(#path-1-outside-1_205_327)"/>
<path d="M99.9565 95.5409C97.5265 95.5409 95.2615 95.1509 93.1615 94.3709C91.0915 93.5609 89.2915 92.4209 87.7615 90.9509C86.2315 89.4809 85.0315 87.7559 84.1615 85.7759C83.3215 83.7959 82.9015 81.6209 82.9015 79.2509C82.9015 76.8809 83.3215 74.7059 84.1615 72.7259C85.0315 70.7459 86.2315 69.0209 87.7615 67.5509C89.3215 66.0809 91.1365 64.9559 93.2065 64.1759C95.2765 63.3659 97.5415 62.9609 100.001 62.9609C102.731 62.9609 105.191 63.4409 107.381 64.4009C109.601 65.3309 111.461 66.7109 112.961 68.5409L108.281 72.8609C107.201 71.6309 106.001 70.7159 104.681 70.1159C103.361 69.4859 101.921 69.1709 100.361 69.1709C98.8915 69.1709 97.5415 69.4109 96.3115 69.8909C95.0815 70.3709 94.0165 71.0609 93.1165 71.9609C92.2165 72.8609 91.5115 73.9259 91.0015 75.1559C90.5215 76.3859 90.2815 77.7509 90.2815 79.2509C90.2815 80.7509 90.5215 82.1159 91.0015 83.3459C91.5115 84.5759 92.2165 85.6409 93.1165 86.5409C94.0165 87.4409 95.0815 88.1309 96.3115 88.6109C97.5415 89.0909 98.8915 89.3309 100.361 89.3309C101.921 89.3309 103.361 89.0309 104.681 88.4309C106.001 87.8009 107.201 86.8559 108.281 85.5959L112.961 89.9159C111.461 91.7459 109.601 93.1409 107.381 94.1009C105.191 95.0609 102.716 95.5409 99.9565 95.5409Z" stroke="#2A335C" stroke-width="4" mask="url(#path-1-outside-1_205_327)"/>
<path d="M131.949 95.5409C129.519 95.5409 127.254 95.1509 125.154 94.3709C123.084 93.5609 121.284 92.4209 119.754 90.9509C118.224 89.4809 117.024 87.7559 116.154 85.7759C115.314 83.7959 114.894 81.6209 114.894 79.2509C114.894 76.8809 115.314 74.7059 116.154 72.7259C117.024 70.7459 118.224 69.0209 119.754 67.5509C121.314 66.0809 123.129 64.9559 125.199 64.1759C127.269 63.3659 129.534 62.9609 131.994 62.9609C134.724 62.9609 137.184 63.4409 139.374 64.4009C141.594 65.3309 143.454 66.7109 144.954 68.5409L140.274 72.8609C139.194 71.6309 137.994 70.7159 136.674 70.1159C135.354 69.4859 133.914 69.1709 132.354 69.1709C130.884 69.1709 129.534 69.4109 128.304 69.8909C127.074 70.3709 126.009 71.0609 125.109 71.9609C124.209 72.8609 123.504 73.9259 122.994 75.1559C122.514 76.3859 122.274 77.7509 122.274 79.2509C122.274 80.7509 122.514 82.1159 122.994 83.3459C123.504 84.5759 124.209 85.6409 125.109 86.5409C126.009 87.4409 127.074 88.1309 128.304 88.6109C129.534 89.0909 130.884 89.3309 132.354 89.3309C133.914 89.3309 135.354 89.0309 136.674 88.4309C137.994 87.8009 139.194 86.8559 140.274 85.5959L144.954 89.9159C143.454 91.7459 141.594 93.1409 139.374 94.1009C137.184 95.0609 134.709 95.5409 131.949 95.5409Z" stroke="#2A335C" stroke-width="4" mask="url(#path-1-outside-1_205_327)"/>
<path d="M170.09 95.0009L160.28 79.8359L166.175 76.2809L178.37 95.0009H170.09ZM149.615 95.0009V63.5009H156.86V95.0009H149.615ZM154.745 82.3109V76.2359H165.725V82.3109H154.745ZM166.85 80.0609L160.145 79.2509L170.36 63.5009H178.055L166.85 80.0609Z" stroke="#2A335C" stroke-width="4" mask="url(#path-1-outside-1_205_327)"/>
<path d="M181.785 95.0009V63.5009H189.03V84.0209L204.06 63.5009H210.9V95.0009H203.7V74.5259L188.67 95.0009H181.785Z" stroke="#2A335C" stroke-width="4" mask="url(#path-1-outside-1_205_327)"/>
<path d="M215.998 63.5009H224.413L230.938 73.0409L237.463 63.5009H246.013L235.528 78.5759L246.868 95.0009H238.273L230.938 84.5609L223.693 95.0009H215.278L226.528 78.8909L215.998 63.5009Z" stroke="#2A335C" stroke-width="4" mask="url(#path-1-outside-1_205_327)"/>
<path d="M263.963 95.0009V63.5009H286.193L286.148 69.4409H269.498L271.163 67.7759L271.208 95.0009H263.963Z" stroke="#2A335C" stroke-width="4" mask="url(#path-1-outside-1_205_327)"/>
<path d="M302.505 95.5409C300.015 95.5409 297.705 95.1359 295.575 94.3259C293.475 93.5159 291.645 92.3759 290.085 90.9059C288.555 89.4359 287.355 87.7109 286.485 85.7309C285.645 83.7509 285.225 81.5909 285.225 79.2509C285.225 76.9109 285.645 74.7509 286.485 72.7709C287.355 70.7909 288.57 69.0659 290.13 67.5959C291.69 66.1259 293.52 64.9859 295.62 64.1759C297.72 63.3659 300 62.9609 302.46 62.9609C304.95 62.9609 307.23 63.3659 309.3 64.1759C311.4 64.9859 313.215 66.1259 314.745 67.5959C316.305 69.0659 317.52 70.7909 318.39 72.7709C319.26 74.7209 319.695 76.8809 319.695 79.2509C319.695 81.5909 319.26 83.7659 318.39 85.7759C317.52 87.7559 316.305 89.4809 314.745 90.9509C313.215 92.3909 311.4 93.5159 309.3 94.3259C307.23 95.1359 304.965 95.5409 302.505 95.5409ZM302.46 89.3309C303.87 89.3309 305.16 89.0909 306.33 88.6109C307.53 88.1309 308.58 87.4409 309.48 86.5409C310.38 85.6409 311.07 84.5759 311.55 83.3459C312.06 82.1159 312.315 80.7509 312.315 79.2509C312.315 77.7509 312.06 76.3859 311.55 75.1559C311.07 73.9259 310.38 72.8609 309.48 71.9609C308.61 71.0609 307.575 70.3709 306.375 69.8909C305.175 69.4109 303.87 69.1709 302.46 69.1709C301.05 69.1709 299.745 69.4109 298.545 69.8909C297.375 70.3709 296.34 71.0609 295.44 71.9609C294.54 72.8609 293.835 73.9259 293.325 75.1559C292.845 76.3859 292.605 77.7509 292.605 79.2509C292.605 80.7209 292.845 82.0859 293.325 83.3459C293.835 84.5759 294.525 85.6409 295.395 86.5409C296.295 87.4409 297.345 88.1309 298.545 88.6109C299.745 89.0909 301.05 89.3309 302.46 89.3309Z" stroke="#2A335C" stroke-width="4" mask="url(#path-1-outside-1_205_327)"/>
<path d="M324.747 95.4959C324.207 95.4959 323.637 95.4509 323.037 95.3609C322.467 95.2709 321.837 95.1509 321.147 95.0009L321.597 88.8359C322.017 88.9559 322.452 89.0159 322.902 89.0159C324.132 89.0159 325.092 88.5209 325.782 87.5309C326.472 86.5109 326.967 85.0559 327.267 83.1659C327.567 81.2759 327.762 78.9809 327.852 76.2809L328.302 63.5009H352.512V95.0009H345.312V67.7759L346.977 69.4409H333.072L334.557 67.6859L334.287 76.0109C334.197 79.1009 333.987 81.8459 333.657 84.2459C333.327 86.6459 332.817 88.6859 332.127 90.3659C331.437 92.0459 330.492 93.3209 329.292 94.1909C328.092 95.0609 326.577 95.4959 324.747 95.4959Z" stroke="#2A335C" stroke-width="4" mask="url(#path-1-outside-1_205_327)"/>
<path d="M361.459 89.0609C363.199 89.5709 364.654 89.7209 365.824 89.5109C367.024 89.2709 368.089 88.4309 369.019 86.9909L370.549 84.6959L371.224 83.9309L381.664 63.5009H388.819L375.409 88.4309C374.209 90.6809 372.784 92.4059 371.134 93.6059C369.514 94.8059 367.729 95.4809 365.779 95.6309C363.829 95.8109 361.804 95.4659 359.704 94.5959L361.459 89.0609ZM371.089 90.0059L356.869 63.5009H364.654L375.094 84.6509L371.089 90.0059Z" stroke="#2A335C" stroke-width="4" mask="url(#path-1-outside-1_205_327)"/>
<path d="M392.283 95.0009V63.5009H417.708V69.3059H399.528V75.7859H408.258C412.068 75.7859 414.963 76.5809 416.943 78.1709C418.953 79.7609 419.958 82.0709 419.958 85.1009C419.958 88.2209 418.848 90.6509 416.628 92.3909C414.408 94.1309 411.273 95.0009 407.223 95.0009H392.283ZM399.528 89.6009H406.818C408.678 89.6009 410.103 89.2409 411.093 88.5209C412.083 87.7709 412.578 86.6909 412.578 85.2809C412.578 82.5209 410.658 81.1409 406.818 81.1409H399.528V89.6009Z" stroke="#2A335C" stroke-width="4" mask="url(#path-1-outside-1_205_327)"/>
<path d="M432.211 76.1909H447.376V81.8609H432.211V76.1909ZM432.751 89.1509H449.896V95.0009H425.506V63.5009H449.311V69.3509H432.751V89.1509Z" stroke="#2A335C" stroke-width="4" mask="url(#path-1-outside-1_205_327)"/>
<path d="M455.784 95.0009V63.5009H463.029V84.0209L478.059 63.5009H484.899V95.0009H477.699V74.5259L462.669 95.0009H455.784ZM470.319 61.4759C467.319 61.4759 465.114 60.8759 463.704 59.6759C462.324 58.4759 461.619 56.7809 461.589 54.5909H466.584C466.614 55.6709 466.929 56.4959 467.529 57.0659C468.159 57.6059 469.089 57.8759 470.319 57.8759C471.519 57.8759 472.434 57.6059 473.064 57.0659C473.694 56.4959 474.024 55.6709 474.054 54.5909H479.049C479.019 56.7809 478.299 58.4759 476.889 59.6759C475.479 60.8759 473.289 61.4759 470.319 61.4759Z" stroke="#2A335C" stroke-width="4" mask="url(#path-1-outside-1_205_327)"/>
</g>
<defs>
<filter id="filter0_d_205_327" x="0.0878296" y="0.908203" width="506.811" height="131.77" filterUnits="userSpaceOnUse" color-interpolation-filters="sRGB">
<feFlood flood-opacity="0" result="BackgroundImageFix"/>
<feColorMatrix in="SourceAlpha" type="matrix" values="0 0 0 0 0 0 0 0 0 0 0 0 0 0 0 0 0 0 127 0" result="hardAlpha"/>
<feOffset dy="15"/>
<feGaussianBlur stdDeviation="10"/>
<feColorMatrix type="matrix" values="0 0 0 0 0 0 0 0 0 0 0 0 0 0 0 0 0 0 0.05 0"/>
<feBlend mode="normal" in2="BackgroundImageFix" result="effect1_dropShadow_205_327"/>
<feBlend mode="normal" in="SourceGraphic" in2="effect1_dropShadow_205_327" result="shape"/>
</filter>
</defs>
</svg>
